<?xml version="1.0" encoding="utf-8"?>
<!-- Generator: Adobe Illustrator 17.0.0, SVG Export Plug-In . SVG Version: 6.00 Build 0)  -->
<!DOCTYPE svg PUBLIC "-//W3C//DTD SVG 1.1//EN" "http://www.w3.org/Graphics/SVG/1.1/DTD/svg11.dtd">
<svg version="1.1" id="Layer_1" xmlns="http://www.w3.org/2000/svg" xmlns:xlink="http://www.w3.org/1999/xlink" x="0px" y="0px"
	 width="420px" height="325px" viewBox="0 0 420 325" enable-background="new 0 0 420 325" xml:space="preserve">
<g id="APP_DESIGN">
</g>
<g id="ECOMMERCE">
</g>
<g id="WORDPRESS">
</g>
<g>
	<path fill="#FFFFFF" d="M-52.167-35v379.333h496V-35H-52.167z M212,204.449V325h-4V204.449c-22.509-1.048-40.5-19.685-40.5-42.449
		s17.991-41.401,40.5-42.449V0h4v119.551c22.509,1.048,40.5,19.685,40.5,42.449S234.509,203.401,212,204.449z"/>
	<path fill="#FFFFFF" d="M210,124.5c-20.678,0-37.5,16.822-37.5,37.5s16.822,37.5,37.5,37.5s37.5-16.822,37.5-37.5
		S230.678,124.5,210,124.5z M208.13,186.667c-5.412,0-10.157-1.705-12.529-3.262l1.779-5.041c1.854,1.186,6.153,3.038,10.676,3.038
		c8.378,0,10.973-5.337,10.898-9.341c-0.074-6.746-6.153-9.637-12.455-9.637h-3.633v-4.893h3.633c4.745,0,10.751-2.446,10.751-8.155
		c0-3.855-2.447-7.266-8.453-7.266c-3.855,0-7.562,1.705-9.638,3.188l-1.705-4.745c2.521-1.853,7.414-3.707,12.604-3.707
		c9.49,0,13.79,5.634,13.79,11.491c0,4.967-2.966,9.193-8.897,11.343v0.149c5.931,1.186,10.751,5.634,10.751,12.381
		C225.701,179.921,219.696,186.667,208.13,186.667z"/>
</g>
</svg>
