<?xml version="1.0" encoding="utf-8"?>
<!-- Generator: Adobe Illustrator 17.0.0, SVG Export Plug-In . SVG Version: 6.00 Build 0)  -->
<!DOCTYPE svg PUBLIC "-//W3C//DTD SVG 1.1//EN" "http://www.w3.org/Graphics/SVG/1.1/DTD/svg11.dtd">
<svg version="1.1" id="Layer_1" xmlns="http://www.w3.org/2000/svg" xmlns:xlink="http://www.w3.org/1999/xlink" x="0px" y="0px"
	 width="420px" height="325px" viewBox="0 0 420 325" enable-background="new 0 0 420 325" xml:space="preserve">
<g id="APP_DESIGN">
</g>
<g id="ECOMMERCE">
</g>
<g id="WORDPRESS">
</g>
<g>
	<path fill="#FFFFFF" d="M247.5,162c0-20.678-16.822-37.5-37.5-37.5s-37.5,16.822-37.5,37.5s16.822,37.5,37.5,37.5
		S247.5,182.678,247.5,162z M214.823,186.555h-6.543v-43.72h-0.154l-8.698,4.695l-1.308-5.157l10.93-5.85h5.773V186.555z"/>
	<path fill="#FFFFFF" d="M212,0v119.551c22.509,1.048,40.5,19.685,40.5,42.449s-17.991,41.401-40.5,42.449V325h208V0H212z"/>
	<path fill="#FFFFFF" d="M167.5,162c0-22.764,17.991-41.401,40.5-42.449V0H0v325h208V204.449
		C185.491,203.401,167.5,184.764,167.5,162z"/>
</g>
</svg>
