<?xml version="1.0" encoding="utf-8"?>
<!-- Generator: Adobe Illustrator 17.0.0, SVG Export Plug-In . SVG Version: 6.00 Build 0)  -->
<!DOCTYPE svg PUBLIC "-//W3C//DTD SVG 1.1//EN" "http://www.w3.org/Graphics/SVG/1.1/DTD/svg11.dtd">
<svg version="1.1" id="Layer_1" xmlns="http://www.w3.org/2000/svg" xmlns:xlink="http://www.w3.org/1999/xlink" x="0px" y="0px"
	 width="420px" height="325px" viewBox="0 0 420 325" enable-background="new 0 0 420 325" xml:space="preserve">
<g id="APP_DESIGN">
</g>
<g id="ECOMMERCE">
</g>
<g id="WORDPRESS">
</g>
<path fill="none" d="M210,124.5c-20.678,0-37.5,16.822-37.5,37.5s16.822,37.5,37.5,37.5s37.5-16.822,37.5-37.5
	S230.678,124.5,210,124.5z"/>
<g>
	<path fill="#FFFFFF" d="M210,124.5c-20.678,0-37.5,16.822-37.5,37.5s16.822,37.5,37.5,37.5s37.5-16.822,37.5-37.5
		S230.678,124.5,210,124.5z M227,187.023h-32v-4.164l5.32-5.165c12.8-12.184,18.584-18.66,18.66-26.217
		c0-5.089-2.467-9.792-9.947-9.792c-4.549,0-8.327,2.313-10.641,4.241l-2.159-4.781c3.47-2.93,8.405-5.089,14.188-5.089
		c10.795,0,15.346,7.402,15.346,14.573c0,9.253-6.71,16.732-17.273,26.91l-4.009,3.701v0.155H227V187.023z"/>
	<path fill="#FFFFFF" d="M-3.097-3.097V331H428.5V-3.097H-3.097z M212,204.449V325h-4V204.449
		c-22.509-1.048-40.5-19.685-40.5-42.449s17.991-41.401,40.5-42.449V0h4v119.551c22.509,1.048,40.5,19.685,40.5,42.449
		S234.509,203.401,212,204.449z"/>
</g>
</svg>
