<?xml version="1.0" encoding="utf-8"?>
<!-- Generator: Adobe Illustrator 17.0.0, SVG Export Plug-In . SVG Version: 6.00 Build 0)  -->
<!DOCTYPE svg PUBLIC "-//W3C//DTD SVG 1.1//EN" "http://www.w3.org/Graphics/SVG/1.1/DTD/svg11.dtd">
<svg version="1.1" id="Layer_1" xmlns="http://www.w3.org/2000/svg" xmlns:xlink="http://www.w3.org/1999/xlink" x="0px" y="0px"
	 width="56px" height="50px" viewBox="0 0 56 50" enable-background="new 0 0 56 50" xml:space="preserve">
<g>
	<path fill="#FFFFFF" d="M-2.667-3v58.167H61.5V-3H-2.667z M28,50C14.215,50,3,38.785,3,25C3,11.215,14.215,0,28,0
		c13.785,0,25,11.215,25,25C53,38.785,41.785,50,28,50z"/>
	<path fill="#FFFFFF" d="M28,2.916C15.823,2.916,5.916,12.823,5.916,25S15.823,47.084,28,47.084S50.084,37.177,50.084,25
		S40.177,2.916,28,2.916z M30.916,37.495h-3.414v-22.81h-0.081l-4.538,2.45l-0.682-2.691l5.702-3.052h3.012V37.495z"/>
</g>
<g>
	<path fill="#FFFFFF" d="M88.25-78.663v-2.212l2.826-2.745c6.802-6.473,9.874-9.914,9.914-13.929c0-2.704-1.311-5.204-5.284-5.204
		c-2.419,0-4.427,1.229-5.654,2.253l-1.148-2.54c1.845-1.556,4.467-2.704,7.539-2.704c5.734,0,8.153,3.933,8.153,7.743
		c0,4.917-3.566,8.892-9.177,14.3l-2.132,1.967v0.082h11.963v2.991H88.25z"/>
</g>
<g>
	<path fill="#FFFFFF" d="M89.696-83.375c0.985,0.631,3.27,1.616,5.673,1.616c4.454,0,5.834-2.837,5.792-4.966
		c-0.039-3.586-3.27-5.123-6.62-5.123H92.61v-2.601h1.932c2.522,0,5.715-1.3,5.715-4.335c0-2.049-1.3-3.862-4.493-3.862
		c-2.051,0-4.021,0.907-5.125,1.694l-0.905-2.522c1.338-0.985,3.941-1.97,6.7-1.97c5.045,0,7.329,2.996,7.329,6.108
		c0,2.641-1.576,4.887-4.73,6.03v0.08c3.154,0.631,5.715,2.994,5.715,6.58c0,4.099-3.193,7.686-9.341,7.686
		c-2.875,0-5.398-0.907-6.659-1.734L89.696-83.375z"/>
</g>
</svg>
